<svg xmlns="http://www.w3.org/2000/svg" width="481" height="461" viewBox="0 0 481 461">
    <g fill="none" fill-rule="evenodd">
        <path fill="#DFF3FE" fill-rule="nonzero" d="M352 5h113v145H352z"/>
        <path fill="#CAEAFE" fill-rule="nonzero" d="M465 67H352V56h113zM472 161H343v-15h129z"/>
        <path fill="#CAEAFE" fill-rule="nonzero" d="M397 7l2.518 9.623c6.605 25.226 19.505 47.352 36.928 63.328l4.312 3.954-12.759 51.863c-.48 1.952 1.584 3.31 2.674 1.758 1.5-2.136 4.231-2.114 5.7.05l1.9 2.786c1.432 2.104 4.069 2.196 5.6.192l2.464-3.237c1.561-2.044 4.262-1.9 5.67.299l1.145 1.79c1.552 2.425 4.607 2.303 6.023-.25 1.506-2.703 4.815-2.63 6.24.138.744 1.444 2.585.806 2.585-.897V7h-71zM473.13 7c3.697 0 3.887-4.846.193-5h-125.65c-3.693.146-3.494 5 .193 5H473.13z"/>
        <circle cx="476" cy="5" r="5" fill="#DFF3FE" fill-rule="nonzero"/>
        <circle cx="346" cy="5" r="5" fill="#DFF3FE" fill-rule="nonzero"/>
        <path fill="#CAEAFE" fill-rule="nonzero" d="M401.517 78.128c.392.304.564.786.447 1.245-.118.46-.506.819-1.005.93l-28.926 6.64-4.339.964c-1.93.428-3.873-.666-4.338-2.444L363 84.101c25.982-5.77 23.46-5.422 29.03-6.642 4.126-.906 8.16-.358 9.487.669z"/>
        <path fill="#CAEAFE" fill-rule="nonzero" d="M386 82l-1.61 12.246c-.301 2.29-.086 3.211-2.148 3.754L379 83.366 386 82zM386 80.986l-6.497-9.648c-1.21-1.803-1.397-2.695-3.503-2.205L379.06 83l6.94-2.014zM363.1 85l-1.1-4.88c1.381-.357 2.835.097 3.82 1.193l2.18 2.424L363.1 85z"/>
        <path fill="#DFF3FE" fill-rule="nonzero" d="M435.846 89.12a76.475 76.475 0 0 0 36.145-.593c1.544-.4 4.492-1.828 3.941-3.863-.55-2.035-3.884-1.786-5.367-1.4-1.273.329-2.553.631-3.843.89-.084.017-.989.188-.51.102.48-.085-.427.071-.51.083a67.97 67.97 0 0 1-7.844.837l-.93.04c-.852.031 1.043 0-.442 0a63.911 63.911 0 0 1-15.074-1.572c-2.205-.503-4.97.12-6.584 1.742-1.381 1.389-1.028 3.258 1.01 3.722l.008.012zM425.265 17.72c-1.38 13.93 2.674 28.141 11.105 39.66a58.71 58.71 0 0 0 8.175 9.007c.836.738 2.07.77 3.092.307.658-.298 1.927-1.425 1.083-2.183-10.484-9.404-17.117-22.182-18.75-35.694a52.252 52.252 0 0 1-.092-11.43c.215-2.178-4.424-1.58-4.613.335v-.002zM34 322h394v11H34z"/>
        <path fill="#BD5D29" fill-rule="nonzero" d="M138.021 377.982l23.167-108.199c1.033-4.665 5.553-7.603 10.12-6.58 4.569 1.024 7.474 5.625 6.506 10.305a9.805 9.805 0 0 1-.294 1.05L141.295 378.93a1.705 1.705 0 0 1-2.051 1.002c-.833-.244-1.358-1.084-1.223-1.96v.01zM439.708 378.922l-36.17-104.19a8.843 8.843 0 0 1 1.463-8.644c1.98-2.4 5.07-3.522 8.086-2.934 3.015.587 5.487 2.791 6.465 5.766a9.8 9.8 0 0 1 .294 1.049l23.133 108.007c.135.874-.39 1.713-1.221 1.956a1.702 1.702 0 0 1-2.048-1l-.002-.01z"/>
        <path fill="#FEBF9F" fill-rule="nonzero" d="M445.016 262H132.724L127 271h324z"/>
        <path fill="#EBE1E8" fill-rule="nonzero" d="M340.288 413h-.013c-1.264-.01-2.282-1.212-2.275-2.686l.424-86.66c.008-1.467 1.03-2.653 2.288-2.654h.013c1.264.01 2.282 1.212 2.275 2.686l-.424 86.66c-.008 1.467-1.03 2.653-2.288 2.654z"/>
        <path fill="#EBE1E8" fill-rule="nonzero" d="M332.758 377.867l.486-25.995 13.998.261-.486 25.995z"/>
        <path fill="#BD5D29" fill-rule="nonzero" d="M127 270h324c0 2.76-2.532 4.999-5.656 5H132.659c-1.501 0-2.94-.527-4.002-1.464-1.06-.938-1.657-2.21-1.657-3.536z"/>
        <path stroke="#FDC2BE" stroke-width="2.874" d="M434 239h3.74c2.905 0 5.26 2.527 5.26 5.645v6.71c0 3.118-2.355 5.645-5.26 5.645H434"/>
        <path fill="#F95447" fill-rule="nonzero" d="M412 231h26v26.356c0 2.565-2.16 4.644-4.823 4.644h-16.351c-2.664 0-4.823-2.08-4.823-4.644V231H412z"/>
        <circle cx="420.5" cy="246.5" r="7.5" fill="#FDC2BE" fill-rule="nonzero"/>
        <circle cx="416" cy="247" r="1" fill="#F95447" fill-rule="nonzero"/>
        <circle cx="425" cy="247" r="1" fill="#F95447" fill-rule="nonzero"/>
        <path fill="#F95447" fill-rule="nonzero" d="M425 248a4 4 0 1 1-8 0"/>
        <path fill="#FEC2BD" fill-rule="nonzero" d="M278 181h110v68H278z"/>
        <path fill="#BD3A27" fill-rule="nonzero" d="M283 186h100v56H283z"/>
        <path fill="#FEC2BD" fill-rule="nonzero" d="M403 269.054L334.001 274 265 269.054 278.892 246H389.73z"/>
        <path fill="#BD3A27" fill-rule="nonzero" d="M403 274H265v-5h57.533s0 2.499 11.466 2.499S345.465 269 345.465 269h57.532l.003 5z"/>
        <path fill="#FFF" fill-rule="nonzero" d="M183.119 256.362l-7.467 6.314c-3.64 3.076-9.074 3.101-12.745.06l-3.377-2.794a17.097 17.097 0 0 0-5.58-3.07l-13.602-4.453c-3.337-1.094-6.122-3.363-7.795-6.353a4.304 4.304 0 0 1-.212-3.79c.52-1.23 1.584-2.172 2.9-2.568 1.27-.4 2.59-.634 3.925-.698 3.634-.142 6.787 1.245 13.01 2.816 8.297 2.096 18.053 3.376 18.053 3.376l13.771.854-.881 10.306z"/>
        <path fill="#F95447" fill-rule="nonzero" d="M135.737 250a13.545 13.545 0 0 1-3.197-3.908 4.438 4.438 0 0 1-.207-3.809 4.496 4.496 0 0 1 2.833-2.581c1.24-.402 2.53-.638 3.834-.702"/>
        <path fill="#470538" fill-rule="nonzero" d="M179.021 251.035l.828 9.214c.146 1.603 1.562 2.798 3.189 2.69l65.905-4.494L294.377 302l22.78-5.43L349 276.893l-86.585-42.425a28.888 28.888 0 0 0-14.342-.987l-64.758 11.964c-2.676.494-4.535 2.913-4.294 5.59z"/>
        <path fill="#85566B" fill-rule="nonzero" d="M387 315.628l-5.634-18.984-65.649-6.667-45.677-41.457a29.93 29.93 0 0 0-8.577-4.934l-61.28-11.526a4.564 4.564 0 0 0-4.748 2.318l-5.017 9.236a3.435 3.435 0 0 0-.125 3.029 3.461 3.461 0 0 0 2.326 1.957l59.067 19.115 17.63 37.367 9.305 16.527c4.904 8.703 12.493 19.8 22.515 20.391h26.2l41.024-3.283c12.498-.435 18.64-10.645 18.64-23.09z"/>
        <path fill="#EBE1E8" fill-rule="nonzero" d="M178.095 261.655L177.01 246.8a2.577 2.577 0 0 1 2.14-2.77l7.083-1.031L188 263.58l-7.201.416a2.574 2.574 0 0 1-2.704-2.341z"/>
        <path fill="#FFF" fill-rule="nonzero" d="M191.295 246s-5.198-1.005-8.31-.983c-5.75.032-8.42-5.405-8.255-10.188l.153-4.383a16.205 16.205 0 0 0-1.017-6.265l-5.01-13.328a13.36 13.36 0 0 1 .27-10.073 4.662 4.662 0 0 1 2.995-2.59 4.849 4.849 0 0 1 3.973.585 19.704 19.704 0 0 1 4.32 3.779c2.41 2.837 3.88 6.215 4.827 9.861 1.423 5.447 6.73 17.068 6.73 17.068l6.029 1.454L191.295 246z"/>
        <path fill="#F95447" fill-rule="nonzero" d="M168 206c0-1.81.37-3.602 1.088-5.269a4.53 4.53 0 0 1 2.896-2.545 4.623 4.623 0 0 1 3.84.576 19.144 19.144 0 0 1 4.176 3.712"/>
        <path fill="#EBE1E8" fill-rule="nonzero" d="M187.242 245.49l6.878-13.387c.4-.778 1.22-1.21 2.05-1.08l6.83 1.727-6.951 19.25-7.6-3.483a2.038 2.038 0 0 1-1.293-1.208 2.204 2.204 0 0 1 .086-1.818z"/>
        <path fill="#CB8D77" fill-rule="nonzero" d="M377 175.694c0 12.305-15.72 6.973-18.303 27.371-2.208.925.212 13.302 7.258 18.413 3.802 2.756-39.187 1.149-38.098 0 6.557-6.922 10.549-17.029 6.772-18.73-18.02.756-14.902-15.987-15.572-27.042C318.055 159.332 330.472 146 347.023 146c16.55-.004 29.97 13.29 29.977 29.694z"/>
        <path fill="#F95447" fill-rule="nonzero" d="M377 172.301c0 12.577-8.982 20.222-18.338 30.514-5.24 2.133-18.463.736-18.463.736s-6.921-5.072-11.846-11.766c-4.865-6.618-6.362-17.28-6.362-17.28s-2.875-.12-4.99-.12c-.073-16.58 5.489-27.943 15.848-28.188 9.73-6.373 14.74-3.833 21.706-2.941C371.763 145.462 377 158.33 377 172.3z"/>
        <path fill="#F95447" fill-rule="nonzero" d="M322.038 174s-2.901-.119-5.037-.119c-.073-16.399 5.541-27.639 15.999-27.881"/>
        <path fill="#FEBF9F" fill-rule="nonzero" d="M393.77 229.523a16.91 16.91 0 0 0-11.25-9.849l-16.228-4.33a7.016 7.016 0 0 1-5.207-4.467 2.333 2.333 0 0 0-.431-1.985 2.325 2.325 0 0 0-1.823-.892h-24.07a2.325 2.325 0 0 0-1.823.892 2.333 2.333 0 0 0-.431 1.985 7.016 7.016 0 0 1-5.207 4.468l-12.575 1.61a19.421 19.421 0 0 0-15.505 11.918l-7.989 35.336c-1.555 6.879 4.99 14.386 11.924 13.175 6.897-1.207 9.722-4.109 9.722-4.109s1.926 6.309-.899 14.338c-.904 2.569-2.294 3.796-3.724 4.393-7.218 3.01-4.192 10.27-2.505 12.51 2.948 3.887 7.318 8.566 13.216 12.195 4.759 2.935 10.734 3.289 16.39 3.289h30.671c13.16 0 20.344-2.79 23.199-4.247a2.51 2.51 0 0 0 1.36-2.438l-1.466-18.77-17.51-35.583 4.91 3.145c10.339 6.618 28.729 10.285 27.414-1.505-.864-7.77-6.454-22.172-10.163-31.08z"/>
        <path fill="#FF9764" fill-rule="nonzero" d="M383.615 263.837c10.086 6.544 20.56 8.308 19.278-3.354-.845-7.69-6.301-21.935-9.918-30.744-1.97-4.8-6.025-8.4-10.975-9.739M316 217c-7.306.88-13.546 5.39-16.338 11.808l-8.418 35.01c-1.64 6.815 5.257 14.254 12.564 13.054 7.268-1.196 10.244-4.071 10.244-4.071l-1.427-9.196L316 217zM368 215c-2.394-.457-4.367-2.07-5.208-4.258a2.143 2.143 0 0 0-.431-1.892 2.369 2.369 0 0 0-1.823-.85h-24.076a2.369 2.369 0 0 0-1.823.85 2.143 2.143 0 0 0-.431 1.892c-.841 2.188-2.814 3.8-5.208 4.258"/>
        <circle cx="360" cy="145" r="13" fill="#BB3B2D" fill-rule="nonzero"/>
        <path fill="#EBE1E8" fill-rule="nonzero" d="M374.652 415h-66.3c-2.403 0-4.352-1.79-4.352-4s1.949-4 4.353-4h66.294c2.404 0 4.353 1.79 4.353 4s-1.949 4-4.353 4h.005z"/>
        <circle cx="305" cy="422" r="8" fill="#EBE1E8" fill-rule="nonzero"/>
        <circle cx="379" cy="422" r="8" fill="#EBE1E8" fill-rule="nonzero"/>
        <path fill="#F5F0F3" fill-rule="nonzero" d="M288.805 338H389v19H279v-9.19a9.814 9.814 0 0 1 2.872-6.938 9.798 9.798 0 0 1 6.933-2.872z"/>
        <path fill="#EBE1E8" fill-rule="nonzero" d="M325.546 338h64.955c5.246 0 9.499 4.301 9.499 9.607V357h-84v-9.353a9.7 9.7 0 0 1 2.796-6.825 9.482 9.482 0 0 1 6.75-2.822z"/>
        <path fill="#FFF" fill-rule="nonzero" d="M354.001 229C332.461 229 315 246.325 315 267.697v45.08a9.19 9.19 0 0 0 2.725 6.523 9.335 9.335 0 0 0 6.575 2.7h59.402c5.135 0 9.298-3.617 9.298-8.712v-45.593c0-13.452-25.838-38.482-25.838-38.482s-5.18-.213-13.16-.213z"/>
        <path fill="#EBE1E8" fill-rule="nonzero" d="M363 229.002c21.54 0 39 17.319 39 38.682v45.094c0 5.093-4.163 9.222-9.298 9.222h-59.404c-5.135 0-9.298-4.129-9.298-9.222v-45.096C324 246.318 341.46 229 363 229v.002z"/>
        <path fill="#F5F0F3" fill-rule="nonzero" d="M358 297h6v45.952c0 1.683-1.341 3.048-2.995 3.048-1.654 0-2.995-1.365-2.995-3.048V297H358z"/>
        <circle cx="361.5" cy="298.5" r="10.5" fill="#EBE1E8" fill-rule="nonzero"/>
        <path fill="#CAEAFE" fill-rule="nonzero" d="M41.99 147c.127.093.205.158.3.231.093.073.174.144.252.214.173.141.337.287.507.433.324.291.618.598.922.905.587.62 1.14 1.273 1.653 1.954a23.102 23.102 0 0 1 2.59 4.412c.17.392.322.792.482 1.192.158.398.296.805.412 1.217l.19.616.094.307c.028.103.048.209.073.312l.282 1.257.065.315.043.317.087.636.086.636c.033.212.054.425.063.639l.068 1.28c0 .211.026.435.028.634v.588l.144 18.843.292 37.687.223 37.688L51 297h-5.799l.155-37.687.222-37.688.292-37.687.144-18.843v-.588c0-.194 0-.362-.013-.543l-.03-1.074a3.977 3.977 0 0 0-.04-.533l-.061-.534-.059-.533-.027-.266-.051-.252a21.762 21.762 0 0 0-1.114-4.13l-.418-.99c-.14-.332-.317-.644-.471-.969-.154-.324-.34-.633-.506-.948-.168-.314-.37-.619-.565-.92-.39-.61-.812-1.198-1.266-1.76-.23-.272-.459-.557-.704-.81-.12-.134-.238-.252-.36-.385-.06-.063-.121-.129-.177-.182L40 149.53l1.99-2.53z"/>
        <path fill="#CAEAFE" fill-rule="nonzero" d="M74 288l-5.841 41.605a5.112 5.112 0 0 1-5.07 4.395H31.903a5.112 5.112 0 0 1-5.07-4.395L21 288h53z"/>
        <path stroke="#CAEAFE" stroke-width="4.198" d="M63 161l-16 19M32 192l16 19M63 208l-16 19"/>
        <path fill="#CAEAFE" fill-rule="nonzero" d="M65.115 192.24c1.077-.588 4.995-3.011 8.57-3.807 5.426-1.211 7.924.55 13.468.102 1.836-.149 3.801-.27 5.395.65 2.68 1.546 3.034 5.45 1.688 8.219-1.346 2.768-3.881 4.738-6.184 6.81-3.843 3.469-7.17 7.5-11.151 10.824-3.981 3.323-8.849 5.974-14.05 5.962-5.203-.012-10.618-3.343-11.677-8.396a6.641 6.641 0 0 1 .203-3.717c1.498-3.898 4.245-3.154 6.358-7.28 2.113-4.126 6.047-8.641 7.38-9.367z"/>
        <path fill="#DFF3FE" fill-rule="nonzero" d="M51.172 211.953a6.387 6.387 0 0 1 .2-3.62c1.479-3.797 4.19-3.073 6.275-7.091 2.085-4.018 5.966-8.406 7.282-9.113 1.063-.572 4.93-2.932 8.456-3.707 5.356-1.18 7.82.536 13.292.099 1.811-.145 3.75-.263 5.323.632 0 0-6.445 1.847-9.612 4.94-3.167 3.095-10.79 8.242-15.004 10.564-4.214 2.322-14.22 9.543-14.22 11.343-1.583-2.833-1.992-4.047-1.992-4.047z"/>
        <path fill="#CAEAFE" fill-rule="nonzero" d="M71.475 148.398c.864-.477 4.877-3.639 7.737-4.285 4.35-.983 5.27-2.667 9.713-3.03 1.47-.12 3.047-.218 4.322.526 2.149 1.253 2.578 4.51-.167 7.322-1.747 1.784-.831 5.548-2.668 7.23-3.08 2.819-8.278 2.66-11.467 5.355-3.19 2.694-1.71 6.182-8.8 5.087-3.466-.537-3.743.804-6.666.268-2.039-.374-.8-2.945-3.381-6.265-.627-.807 1.951-2.679 2.316-3.633 1.202-3.163 3.898-1.742 5.6-5.087 1.702-3.346 2.393-2.9 3.461-3.488z"/>
        <path fill="#DFF3FE" fill-rule="nonzero" d="M60.14 160.595a5.587 5.587 0 0 1 .16-3.05c1.193-3.193 3.62-1.837 5.307-5.214 1.687-3.377 1.32-5.135 4.494-7.298 3.174-2.162 5.628-1.77 8.458-2.433 4.311-.992 5.375-4.227 9.78-4.596 1.458-.122 3.397 2.669 4.661 3.42 0 0-5.195 1.55-7.73 4.15-2.536 2.601-8.69 6.937-12.082 8.887-3.39 1.95-11.448 8.021-11.448 9.539-1.271-2.383-1.6-3.405-1.6-3.405zM32.905 130.343c-.862-.463-4.003-2.373-6.853-3.001-4.343-.955-6.338.433-10.775.08-1.468-.117-3.042-.212-4.315.512-2.145 1.218-2.427 4.295-1.35 6.48 1.076 2.185 3.114 3.735 4.947 5.36 3.074 2.74 5.73 5.912 8.92 8.526 3.188 2.615 7.077 4.71 11.238 4.7 4.16-.01 7.83-2.524 8.677-6.507.207-.975.862-2.12.498-3.048-1.2-3.074-3.388-2.487-5.087-5.74-1.7-3.252-4.836-6.79-5.9-7.362z"/>
        <path fill="#CAEAFE" fill-rule="nonzero" d="M43.86 147.532a5.8 5.8 0 0 0-.16-3.11c-1.193-3.254-3.365-2.633-5.052-6.075-1.687-3.443-4.801-7.203-5.86-7.809-.856-.49-3.975-2.511-6.805-3.177-4.312-1.01-6.293.46-10.699.086-1.457-.124-3.02-.225-4.284.541 0 0 5.195 1.58 7.73 4.232 2.536 2.65 8.69 7.07 12.082 9.058 3.39 1.989 11.445 8.175 11.445 9.722 1.274-2.427 1.603-3.468 1.603-3.468z"/>
        <path fill="#DFF3FE" fill-rule="nonzero" d="M23.306 180.682c-1.014-.559-1.98-3.524-5.336-4.283-5.109-1.155-5.86-3.865-11.08-4.303-1.727-.14-3.578-.25-5.076.618-2.522 1.473-2.522 5.01.68 8.492 1.99 2.161 1.046 6.069 3.2 8.04 3.619 3.309 7.726 1.656 11.475 4.817 3.748 3.16 7.7 8.947 12.597 8.937 4.897-.01 9.214-3.046 10.21-7.855.25-1.175-1.568-2.638-1.997-3.757-1.413-3.71-4.14-3.835-6.138-7.765-1.997-3.93-7.281-2.26-8.535-2.94z"/>
        <path fill="#CAEAFE" fill-rule="nonzero" d="M40.834 194.194a5.938 5.938 0 0 0-.189-3.414c-1.41-3.572-3.984-2.894-5.976-6.671-1.991-3.777-6-3.562-7.25-4.228-1.01-.538-3.307-5.455-6.65-6.186-5.095-1.111-10.112-2.062-13.707-1.555-1.71.241-3.568-.241-5.062.595 0 0 6.13 1.737 9.135 4.648 3.006 2.91 10.273 7.773 14.282 9.943S38.942 196.302 38.942 198c1.501-2.662 1.892-3.806 1.892-3.806z"/>
        <path fill="#DFF3FE" fill-rule="nonzero" d="M27.776 281h39.448c3.742 0 6.776 2.686 6.776 6H21c0-3.314 3.034-6 6.776-6z"/>
        <path fill="#CAEAFE" fill-rule="nonzero" stroke="#CAEAFE" stroke-width="6.6" d="M184.001 93a30.083 30.083 0 0 1 21.213 8.739A29.751 29.751 0 0 1 214 122.836V159h-60v-36.164c0-7.913 3.16-15.502 8.786-21.098A30.083 30.083 0 0 1 184.001 93z"/>
        <path fill="#CAEAFE" fill-rule="nonzero" d="M47 28h60v66H47z"/>
        <path fill="#DFF3FE" fill-rule="nonzero" d="M55 36h47v52H55z"/>
        <path fill="#CAEAFE" fill-rule="nonzero" d="M93 47.386c0-.713-.937-1.036-1.416-.487l-7.548 3.432c-2.506-1.62-9.829-1.499-12.18-.17l-8.52-3.964c-.519-.444-1.348-.089-1.336.577.055 3.303 1.103 7.726 1.539 11.41a14.291 14.291 0 0 0-1.048 5.453C62.491 72.122 69.276 79 77.645 79c8.37 0 15.155-6.878 15.155-15.363a14.308 14.308 0 0 0-1.003-5.374C91.955 54.216 93 47.386 93 47.386z"/>
        <path fill="#DFF3FE" fill-rule="nonzero" d="M207 155.86L188.406 123 167 156z"/>
        <path fill="#DFF3FE" fill-rule="nonzero" d="M182 131.956L172.813 117 160 138.187V155h15.473z"/>
        <circle cx="198.5" cy="117.5" r="5.5" fill="#DFF3FE" fill-rule="nonzero"/>
        <g fill-rule="nonzero" transform="translate(244 3)">
            <circle cx="41.068" cy="40.91" r="40.858" fill="#DFF3FE"/>
            <path fill="#CAEAFE" d="M65.082 40.91c0 13.5-10.25 24.458-23.75 24.458-13.41-.136-24.21-11.046-24.21-24.457 0-13.41 10.8-24.32 24.21-24.456 13.498 0 23.75 10.948 23.75 24.455z"/>
            <circle cx="41.325" cy="40.91" r="11.693" fill="#DFF3FE"/>
            <path fill="#DFF3FE" d="M23.567 63.7c-1.147-1.158.448-4.75-1.182-4.805-1.63-.055-3.235-.393-4.518-1.34-1.282-.947-2.127-2.6-1.787-4.157.34-1.558-4.21-1.908-1.867-3.168 1.56-.84 1.625-4.095.082-4.97a3.948 3.948 0 0 1-1.348-1.075c-.58-.825-.842-2.263-.112-3.135H65.29l11.087 13c0 7-21.684 17.703-26.534 22.03L23.567 63.7z"/>
            <path fill="#CAEAFE" d="M48.97 44.958h.115a3.93 3.93 0 0 0 3.93-3.93H29.622a3.93 3.93 0 0 0 3.93 3.93h.153a1.75 1.75 0 0 1-.205 3.485h-.725a1.85 1.85 0 0 0-1.85 1.85v.23a1.85 1.85 0 0 0 1.85 1.85h3.313a1.168 1.168 0 0 1 0 2.335h-1.633c-.819 0-1.483.663-1.483 1.482v.185c0 .819.664 1.483 1.483 1.483h2.808a.909.909 0 1 1 0 1.817H36c-.638 0-1.155.517-1.155 1.155v.145A1.155 1.155 0 0 0 36 62.13h10.685c.638 0 1.155-.517 1.155-1.155v-.145c0-.638-.517-1.155-1.155-1.155h-1.27a.909.909 0 1 1 0-1.817h2.775c.819 0 1.483-.664 1.483-1.483v-.185c0-.819-.664-1.482-1.483-1.482h-1.633a1.168 1.168 0 0 1 0-2.335h3.346a1.85 1.85 0 0 0 1.85-1.85v-.23a1.85 1.85 0 0 0-1.85-1.85h-.725a1.75 1.75 0 0 1-.206-3.485h-.002z"/>
        </g>
        <ellipse cx="284.5" cy="42" stroke="#CAEAFE" stroke-width="7.26" rx="26.5" ry="26"/>
        <path fill="#CAEAFE" fill-rule="nonzero" d="M37 445h172v9.834c0 3.405-2.834 6.166-6.33 6.166H43.33c-3.496 0-6.33-2.76-6.33-6.166V445z"/>
        <path fill="#DFF3FE" fill-rule="nonzero" d="M53.264 429h139.472c8.983 0 16.264 7.094 16.264 15.846V445H37v-.154C37 436.094 44.281 429 53.264 429z"/>
        <path fill="#470538" fill-rule="nonzero" d="M128.238 423.464c1.816 1.583 16.42 10.669-2.641 9.63-5.29-.289-6.6 3.174-4.894 3.811 1.706.637 12.977 3.19 18.154 1.559 5.177-1.632 21.741-8.668 20.018-12.731-1.598-3.76-9.258-10.838-12.077-11.547-6.945-1.738-18.56 9.278-18.56 9.278z"/>
        <path stroke="#F95447" stroke-linecap="round" stroke-linejoin="round" stroke-width="1.98" d="M145 392.11s1.744-.9 2.616 2.454l5.947 21.422c.385 1.389 1.113 3.926-1.027 4.014"/>
        <path fill="#470538" fill-rule="nonzero" d="M100.48 427c2.229 2.394 4.64 3.515 7.727 4.143 6.501 1.305 10.957 2.916 9.524 5.365-1.352 2.302-5.77 1.291-8.593 1.15-9.452-.5-23.905.712-25.138-6.538"/>
        <path fill="#85566B" fill-rule="nonzero" d="M189.243 431.964c-1.691-1.315-27.64-5.614-32.733-6.438-6.124-.99-4.447-6.644-4.447-6.644s16.099.99 21.239.458c6.784-.686 8.535-2.744 9.07-7.033.607-4.854-6.831-7.268-9.483-9.767-2.65-2.499-3.625-8.284-9.27-12.135-3.88-2.652-8.745-2.971-14.432-1.639-3.541.832-3.131 2.833-3.131 2.833s-16.939 3.546-26.379 2.533c-14.118-1.513-27.736-4.056-38.275-3.526-21.092 1.06-32.234 15.82-34.482 22.535-2.25 6.716-4.813 8.257-6.497 15.602-1.25 5.448.25 12.877 4.748 15.849 7.826 5.17 14.492 3.692 23.605 6.998 4.675 1.696 8.443 6.825 9.218 5.037 1.716-3.962-1.415-8.613-7.19-11.144-5.774-2.53-13.337-2.677-17.388-5.597-5.497-3.962-2.206-9.675.5-13.372 1 1.238 4.56 5.72 9.495 7.181 4.88 1.444 6.082.694 7.541 5.028 2.114 6.28 3.416 5.433 24.133 6.364 2.051.092 9.56 1.12 12.803.495 3.46-.663 3.248-2.971 2.219-4.034-1.912-1.981-7.059-1.897-9.807-2.442-3.581-.708-6.405-.653-9.053-3.55-1.292-1.412-2.282-4.015-.75-5.152 9.633-7.112 13.38 2.05 43.21 1.295 3.249-.081 1.422 4.173 4.66 5.696 3.429 1.602 27.736-4.135 45.477-1.213 6.222 1.013 7.089-2.903 5.4-4.218z"/>
        <path fill="#470538" fill-rule="nonzero" d="M180.29 410.085c-.276-.379-4.545.58-4.278 1.526.13.459.69 1.766 1.155 1.834.465.07.942-.197 1.368-.371.221-.098.458-.155.698-.167a.937.937 0 0 1 .317.03c.067.015.13.048.181.096.008.01.018.018.028.025v.071c-.021.16-.045.321-.067.481l-.15 1.06c-.035.247-.055 1.721.485 1.23 1.392-1.272 1.115-4.658.263-5.815z"/>
        <path stroke="#F95447" stroke-linecap="round" stroke-linejoin="round" stroke-width="1.98" d="M152 420a13.203 13.203 0 0 1-2.565-1.397c-3.816-2.71-11.988-10.53-8.652-21.511.793-2.609 1.603-4.27 3.684-5.092"/>
        <path fill="#470538" fill-rule="nonzero" d="M149.013 388.377c-3.025.956-4.503 6.461-6.41 8.955-3.154 4.108-6.393 9.757-3.443 14.007 2.95 4.25 10.194 3.032 13.446-.993 3.253-4.025 3.327-13.027 3.393-17.355.066-4.328-3.353-5.756-6.986-4.614z"/>
        <circle cx="152" cy="421" r="2" fill="#BD3A27" fill-rule="nonzero"/>
    </g>
</svg>
